<svg width="1650" height="451" viewBox="0 0 1650 451" fill="none" xmlns="http://www.w3.org/2000/svg">
<path d="M1692.91 -33C1695.17 -33 1696.98 -32.0857 1698.34 -30.257C1700.15 -28.8855 1701.05 -27.0568 1701.05 -24.7709V41.7472C1701.05 44.0331 1700.15 46.0903 1698.34 47.919C1696.98 49.2905 1695.17 49.9763 1692.91 49.9763H1608.07C1605.81 49.9763 1604.68 51.1192 1604.68 53.4051V438.799C1604.68 441.085 1603.77 443.142 1601.96 444.971C1600.61 446.342 1598.8 447.028 1596.53 447.028H1517.13C1514.86 447.028 1512.83 446.342 1511.02 444.971C1509.66 443.142 1508.98 441.085 1508.98 438.799V53.4051C1508.98 51.1192 1507.85 49.9763 1505.59 49.9763H1424.14C1421.88 49.9763 1419.85 49.2905 1418.04 47.919C1416.68 46.0903 1416 44.0331 1416 41.7472V-24.7709C1416 -27.0568 1416.68 -28.8855 1418.04 -30.257C1419.85 -32.0857 1421.88 -33 1424.14 -33H1692.91Z" fill="#FFF7E2"/>
<path d="M1196.06 451C1155.34 451 1122.54 438.199 1097.65 412.598C1073.22 386.539 1061 352.023 1061 309.049V-26.2849C1061 -28.5707 1061.68 -30.3994 1063.04 -31.7709C1064.85 -33.5996 1066.88 -34.5139 1069.14 -34.5139H1148.55C1150.81 -34.5139 1152.62 -33.5996 1153.98 -31.7709C1155.79 -30.3994 1156.7 -28.5707 1156.7 -26.2849V318.65C1156.7 333.279 1160.32 345.165 1167.56 354.309C1174.79 363.452 1184.3 368.024 1196.06 368.024C1207.82 368.024 1217.1 363.452 1223.89 354.309C1231.13 345.165 1234.75 333.279 1234.75 318.65V-26.2849C1234.75 -28.5707 1235.43 -30.3994 1236.78 -31.7709C1238.59 -33.5996 1240.63 -34.5139 1242.89 -34.5139H1322.3C1324.56 -34.5139 1326.37 -33.5996 1327.73 -31.7709C1329.54 -30.3994 1330.44 -28.5707 1330.44 -26.2849V309.049C1330.44 352.023 1318 386.539 1293.11 412.598C1268.68 438.199 1236.33 451 1196.06 451Z" fill="#FFF7E2"/>
<path d="M838.097 451C796.47 451 763.214 438.656 738.328 413.969C713.443 389.282 701 356.366 701 315.221V95.7793C701 54.6341 713.443 21.7179 738.328 -2.9693C763.214 -27.6564 796.47 -40 838.097 -40C879.724 -40 912.98 -27.6564 937.865 -2.9693C963.203 21.7179 975.872 54.6341 975.872 95.7793V315.221C975.872 356.366 963.203 389.282 937.865 413.969C912.98 438.656 879.724 451 838.097 451ZM838.097 368.024C850.766 368.024 860.946 363.681 868.638 354.994C876.33 345.851 880.176 333.965 880.176 319.335V91.6648C880.176 77.0354 876.33 65.3776 868.638 56.6913C860.946 47.548 850.766 42.9762 838.097 42.9762C825.428 42.9762 815.247 47.548 807.556 56.6913C800.316 65.3776 796.696 77.0354 796.696 91.6648V319.335C796.696 333.965 800.316 345.851 807.556 354.994C815.247 363.681 825.428 368.024 838.097 368.024Z" fill="#FFF7E2"/>
<path d="M615.836 313.164C615.836 355.68 603.167 388.368 577.829 411.226C552.491 434.085 519.688 445.514 479.418 445.514H351.144C348.882 445.514 346.846 444.828 345.036 443.457C343.679 441.628 343 439.571 343 437.285V-26.2849C343 -28.5707 343.679 -30.3994 345.036 -31.7709C346.846 -33.5996 348.882 -34.5139 351.144 -34.5139H464.487C509.733 -34.5139 545.026 -23.5418 570.364 -1.59769C596.154 20.3464 609.049 53.0341 609.049 96.4652C609.049 141.725 593.666 174.641 562.898 195.214C561.088 196.585 560.862 197.957 562.219 199.328C597.964 224.93 615.836 262.875 615.836 313.164ZM442.09 48.4623C439.827 48.4623 438.696 49.6053 438.696 51.8912V159.555C438.696 161.84 439.827 162.983 442.09 162.983H466.523C481.907 162.983 493.897 158.183 502.494 148.582C511.091 138.525 515.389 124.581 515.389 106.751C515.389 88.0075 511.091 73.6067 502.494 63.549C494.349 53.4912 482.359 48.4623 466.523 48.4623H442.09ZM471.952 361.852C486.884 361.852 498.648 356.366 507.245 345.394C515.842 334.422 520.14 318.878 520.14 298.763C520.14 278.647 515.842 262.646 507.245 250.76C498.648 238.873 487.11 232.93 472.631 232.93H442.09C439.827 232.93 438.696 234.073 438.696 236.359V358.423C438.696 360.709 439.827 361.852 442.09 361.852H471.952Z" fill="#FFF7E2"/>
<path d="M168.28 447.028C162.85 447.028 159.909 444.514 159.457 439.485L148.598 373.652C148.598 371.366 147.24 370.224 144.525 370.224H58.3307C55.616 370.224 54.2586 371.366 54.2586 373.652L43.3994 439.485C42.9469 444.514 40.0059 447.028 34.5763 447.028H-44.8313C-50.7133 447.028 -52.9756 444.056 -51.6182 438.113L48.1503 -25.4567C49.0552 -30.4856 51.9962 -33 56.9734 -33H148.598C153.575 -33 156.516 -30.4856 157.421 -25.4567L256.51 438.113L257.189 440.856C257.189 444.971 254.701 447.028 249.723 447.028H168.28ZM67.8325 292.048C67.8325 294.333 68.7374 295.476 70.5473 295.476H131.63C133.892 295.476 134.797 294.333 134.345 292.048L102.446 104.837C101.994 103.465 101.315 102.779 100.41 102.779C99.5051 102.779 98.8264 103.465 98.3739 104.837L67.8325 292.048Z" fill="#FFF7E2"/>
</svg>
