<svg width="1767" height="504" viewBox="0 0 1767 504" fill="none" xmlns="http://www.w3.org/2000/svg">
<path d="M1650.16 504C1627.11 504 1606.84 498.603 1589.36 487.81C1571.87 477.017 1558.36 462 1548.82 442.76C1539.28 423.05 1534.51 400.525 1534.51 375.184V354.771C1534.51 352.425 1535.11 350.547 1536.3 349.14C1537.89 347.263 1539.68 346.324 1541.67 346.324H1610.22C1612.21 346.324 1613.8 347.263 1614.99 349.14C1616.58 350.547 1617.37 352.425 1617.37 354.771V370.257C1617.37 384.804 1620.55 396.536 1626.91 405.452C1633.27 414.369 1641.22 418.827 1650.76 418.827C1660.3 418.827 1668.24 414.603 1674.6 406.156C1680.96 397.709 1684.14 386.682 1684.14 373.073C1684.14 358.994 1680.17 347.028 1672.22 337.173C1664.27 326.849 1648.77 311.832 1625.72 292.123C1605.85 275.229 1589.75 260.212 1577.43 247.073C1565.12 233.933 1554.58 217.743 1545.84 198.503C1537.1 179.263 1532.73 156.972 1532.73 131.631C1532.73 91.743 1543.26 59.8324 1564.32 35.8994C1585.38 11.9665 1613.2 0 1647.78 0C1682.75 0 1710.77 12.4357 1731.83 37.3072C1753.29 62.1787 1764.02 94.7933 1764.02 135.151V152.045C1764.02 154.391 1763.22 156.503 1761.64 158.38C1760.44 159.788 1758.85 160.492 1756.87 160.492H1688.31C1686.33 160.492 1684.54 159.788 1682.95 158.38C1681.76 156.503 1681.16 154.391 1681.16 152.045V133.039C1681.16 118.492 1677.98 106.994 1671.62 98.5475C1665.66 89.6313 1657.71 85.1732 1647.78 85.1732C1638.24 85.1732 1630.49 89.3966 1624.53 97.8436C1618.57 105.821 1615.59 117.084 1615.59 131.631C1615.59 145.709 1619.36 158.145 1626.91 168.939C1634.46 179.732 1649.37 194.749 1671.62 213.989C1696.26 235.575 1714.74 253.173 1727.06 266.782C1739.78 279.922 1749.51 294.704 1756.27 311.128C1763.42 327.084 1767 346.324 1767 368.849C1767 410.145 1756.27 442.994 1734.81 467.397C1713.35 491.799 1685.13 504 1650.16 504Z" fill="#FF3700"/>
<path d="M1495.31 5.6311C1497.29 5.6311 1498.88 6.56967 1500.07 8.44677C1501.66 9.8546 1502.46 11.7317 1502.46 14.0781V82.3574C1502.46 84.7037 1501.66 86.8155 1500.07 88.6926C1498.88 90.1004 1497.29 90.8043 1495.31 90.8043H1420.79C1418.8 90.8043 1417.81 91.9775 1417.81 94.3239V489.922C1417.81 492.268 1417.02 494.38 1415.43 496.257C1414.23 497.665 1412.64 498.369 1410.66 498.369H1340.91C1338.92 498.369 1337.14 497.665 1335.55 496.257C1334.35 494.38 1333.76 492.268 1333.76 489.922V94.3239C1333.76 91.9775 1332.76 90.8043 1330.78 90.8043H1259.24C1257.26 90.8043 1255.47 90.1004 1253.88 88.6926C1252.69 86.8155 1252.09 84.7037 1252.09 82.3574V14.0781C1252.09 11.7317 1252.69 9.8546 1253.88 8.44677C1255.47 6.56967 1257.26 5.6311 1259.24 5.6311H1495.31Z" fill="#FF3700"/>
<path d="M1109.93 504C1086.88 504 1066.61 498.603 1049.12 487.81C1031.64 477.017 1018.13 462 1008.59 442.76C999.051 423.05 994.282 400.525 994.282 375.184V354.771C994.282 352.425 994.878 350.547 996.07 349.14C997.66 347.263 999.448 346.324 1001.44 346.324H1069.99C1071.98 346.324 1073.57 347.263 1074.76 349.14C1076.35 350.547 1077.14 352.425 1077.14 354.771V370.257C1077.14 384.804 1080.32 396.536 1086.68 405.452C1093.04 414.369 1100.99 418.827 1110.52 418.827C1120.06 418.827 1128.01 414.603 1134.37 406.156C1140.73 397.709 1143.91 386.682 1143.91 373.073C1143.91 358.994 1139.93 347.028 1131.99 337.173C1124.04 326.849 1108.54 311.832 1085.49 292.123C1065.62 275.229 1049.52 260.212 1037.2 247.073C1024.88 233.933 1014.35 217.743 1005.61 198.503C996.865 179.263 992.494 156.972 992.494 131.631C992.494 91.743 1003.03 59.8324 1024.09 35.8994C1045.15 11.9665 1072.97 0 1107.54 0C1142.52 0 1170.53 12.4357 1191.6 37.3072C1213.06 62.1787 1223.79 94.7933 1223.79 135.151V152.045C1223.79 154.391 1222.99 156.503 1221.4 158.38C1220.21 159.788 1218.62 160.492 1216.63 160.492H1148.08C1146.09 160.492 1144.3 159.788 1142.72 158.38C1141.52 156.503 1140.93 154.391 1140.93 152.045V133.039C1140.93 118.492 1137.75 106.994 1131.39 98.5475C1125.43 89.6313 1117.48 85.1732 1107.54 85.1732C1098.01 85.1732 1090.26 89.3966 1084.3 97.8436C1078.33 105.821 1075.35 117.084 1075.35 131.631C1075.35 145.709 1079.13 158.145 1086.68 168.939C1094.23 179.732 1109.13 194.749 1131.39 213.989C1156.03 235.575 1174.51 253.173 1186.83 266.782C1199.55 279.922 1209.28 294.704 1216.04 311.128C1223.19 327.084 1226.77 346.324 1226.77 368.849C1226.77 410.145 1216.04 442.994 1194.58 467.397C1173.12 491.799 1144.9 504 1109.93 504Z" fill="#FF3700"/>
<path d="M872.395 498.369C870.408 498.369 868.62 497.665 867.03 496.257C865.838 494.38 865.242 492.268 865.242 489.922V14.0781C865.242 11.7317 865.838 9.8546 867.03 8.44677C868.62 6.56967 870.408 5.6311 872.395 5.6311H942.141C944.128 5.6311 945.718 6.56967 946.91 8.44677C948.499 9.8546 949.294 11.7317 949.294 14.0781V489.922C949.294 492.268 948.499 494.38 946.91 496.257C945.718 497.665 944.128 498.369 942.141 498.369H872.395Z" fill="#FF3700"/>
<path d="M817.687 5.6311C819.674 5.6311 821.264 6.56967 822.456 8.44677C824.046 9.8546 824.841 11.7317 824.841 14.0781V82.3574C824.841 84.7037 824.046 86.8155 822.456 88.6926C821.264 90.1004 819.674 90.8043 817.687 90.8043H743.173C741.185 90.8043 740.192 91.9775 740.192 94.3239V489.922C740.192 492.268 739.397 494.38 737.807 496.257C736.615 497.665 735.026 498.369 733.039 498.369H663.293C661.306 498.369 659.517 497.665 657.928 496.257C656.735 494.38 656.139 492.268 656.139 489.922V94.3239C656.139 91.9775 655.146 90.8043 653.159 90.8043H581.625C579.638 90.8043 577.849 90.1004 576.26 88.6926C575.067 86.8155 574.471 84.7037 574.471 82.3574V14.0781C574.471 11.7317 575.067 9.8546 576.26 8.44677C577.849 6.56967 579.638 5.6311 581.625 5.6311H817.687Z" fill="#FF3700"/>
<path d="M470.327 498.369C465.956 498.369 463.174 496.022 461.982 491.329L416.081 297.05C415.286 295.173 414.292 294.234 413.1 294.234H392.832C390.845 294.234 389.851 295.408 389.851 297.754V489.922C389.851 492.268 389.057 494.38 387.467 496.257C386.275 497.665 384.685 498.369 382.698 498.369H312.952C310.965 498.369 309.177 497.665 307.587 496.257C306.395 494.38 305.799 492.268 305.799 489.922V14.0781C305.799 11.7317 306.395 9.8546 307.587 8.44677C309.177 6.56967 310.965 5.6311 312.952 5.6311H433.368C455.226 5.6311 474.699 11.9663 491.788 24.6367C508.876 36.8378 521.991 54.201 531.131 76.7261C540.669 99.2512 545.438 125.061 545.438 154.156C545.438 181.843 540.868 206.246 531.727 227.363C522.984 248.48 510.665 264.905 494.768 276.637C493.973 277.106 493.377 277.81 492.98 278.748C492.582 279.218 492.582 279.922 492.98 280.86L547.823 488.514L548.419 491.329C548.419 496.022 546.233 498.369 541.861 498.369H470.327ZM392.832 90.8043C390.845 90.8043 389.851 91.9775 389.851 94.3239V214.693C389.851 217.039 390.845 218.212 392.832 218.212H419.657C431.977 218.212 441.912 212.581 449.463 201.318C457.411 189.586 461.386 174.1 461.386 154.86C461.386 135.151 457.411 119.665 449.463 108.402C441.912 96.6702 431.977 90.8043 419.657 90.8043H392.832Z" fill="#FF3700"/>
<path d="M193.477 498.369C188.709 498.369 186.125 495.788 185.728 490.626L176.19 423.05C176.19 420.704 174.998 419.531 172.613 419.531H96.9064C94.5219 419.531 93.3297 420.704 93.3297 423.05L83.7918 490.626C83.3944 495.788 80.8112 498.369 76.0423 498.369H6.29649C1.13014 498.369 -0.856919 495.318 0.335316 489.218L87.9646 13.3742C88.7595 8.21213 91.3426 5.6311 95.7142 5.6311H176.19C180.562 5.6311 183.145 8.21213 183.94 13.3742L270.973 489.218L271.569 492.033C271.569 496.257 269.383 498.369 265.012 498.369H193.477ZM105.252 339.285C105.252 341.631 106.047 342.804 107.637 342.804H161.287C163.274 342.804 164.069 341.631 163.672 339.285L135.654 147.117C135.257 145.709 134.661 145.005 133.866 145.005C133.071 145.005 132.475 145.709 132.077 147.117L105.252 339.285Z" fill="#FF3700"/>
</svg>
