<svg width="426" height="515" viewBox="0 0 426 515" fill="none" xmlns="http://www.w3.org/2000/svg">
<path d="M24.65 246.75C4 246.75 0.15 236.95 0.15 213.85V141.75H14.5V176.4C14.5 191.1 15.2 194.6 24.65 194.6C34.1 194.6 34.45 191.1 34.45 176.4V-1.66893e-05H48.8V213.85C48.8 236.95 44.95 246.75 24.65 246.75ZM80.3711 246.75C59.7211 246.75 55.8711 236.95 55.8711 213.85V-1.66893e-05H70.2211V176.4C70.2211 191.1 70.9211 194.6 80.3711 194.6C89.8211 194.6 90.1711 191.1 90.1711 176.4V-1.66893e-05H104.521V213.85C104.521 236.95 100.671 246.75 80.3711 246.75ZM111.584 245V-1.66893e-05H129.084L151.834 155.75H152.884V-1.66893e-05H167.234V245H149.734L126.984 89.25H125.934V245H111.584ZM174.133 245V-1.66893e-05H188.483V95.55H189.533L204.933 -1.66893e-05H219.983L199.683 116.55L224.183 245H208.083L189.533 144.55H188.483V245H174.133ZM241.453 245V148.4H238.303L224.653 -1.66893e-05H239.353L248.103 100.1H249.153L257.903 -1.66893e-05H272.603L258.953 148.4H255.803V245H241.453ZM262.593 245L277.993 -1.66893e-05H298.993L314.393 245H299.343L297.593 211.75H279.743L277.643 245H262.593ZM281.143 186.55H295.843L289.193 68.25H288.143L281.143 186.55ZM318.713 245V-1.66893e-05H344.613C361.413 -1.66893e-05 368.763 9.44999 368.763 31.15V96.25C368.763 113.05 364.913 119.7 354.063 120.4V121.1C365.263 122.5 368.763 129.5 368.763 147V245H354.413V151.55C354.413 140.35 352.663 133.35 342.863 133.35H333.063V245H318.713ZM333.063 108.15H343.213C352.663 108.15 354.413 104.65 354.413 89.95V70.35C354.413 55.65 352.663 52.15 343.213 52.15H333.063V108.15ZM375.451 245V-1.66893e-05H401.001C421.301 -1.66893e-05 425.501 9.44999 425.501 31.15V213.85C425.501 235.55 421.301 245 401.001 245H375.451ZM389.801 192.85H399.601C409.051 192.85 411.151 189.35 411.151 174.65V70.35C411.151 55.65 409.051 52.15 399.601 52.15H389.801V192.85ZM0.5 515V270H26.05C46.35 270 50.55 279.45 50.55 301.15V483.85C50.55 505.55 46.35 515 26.05 515H0.5ZM14.85 462.85H24.65C34.1 462.85 36.2 459.35 36.2 444.65V340.35C36.2 325.65 34.1 322.15 24.65 322.15H14.85V462.85ZM57.5801 515V270H83.4801C100.28 270 107.63 279.45 107.63 301.15V366.25C107.63 383.05 103.78 389.7 92.9301 390.4V391.1C104.13 392.5 107.63 399.5 107.63 417V515H93.2801V421.55C93.2801 410.35 91.5301 403.35 81.7301 403.35H71.9301V515H57.5801ZM71.9301 378.15H82.0801C91.5301 378.15 93.2801 374.65 93.2801 359.95V340.35C93.2801 325.65 91.5301 322.15 82.0801 322.15H71.9301V378.15ZM110.818 515V270H125.168V515H110.818ZM148.102 515L133.052 270H148.102L158.252 450.25H159.302L169.102 270H184.152L169.102 515H148.102ZM188.488 515V270H232.588V322.15H202.838V377.45H223.838V402.65H202.838V462.85H235.038V515H188.488Z" fill="#FF3700"/>
</svg>
