<svg width="414" height="583" viewBox="0 0 414 583" fill="none" xmlns="http://www.w3.org/2000/svg">
<path d="M344.281 516.99V444.701H341.139L327.52 265.18H342.186L350.916 386.272H351.964L360.694 265.18H375.36L361.741 444.701H358.598V516.99H344.281Z" fill="black"/>
<path d="M300.092 519.219C279.786 519.219 276 507.355 276 479.39V291.639C276 263.25 279.786 262.952 300.092 262.952C320.398 262.952 323.84 274.392 323.84 302.781V479.39C323.84 507.355 320.398 519.219 300.092 519.219ZM290.111 478.621C290.111 496.417 290.799 500.654 300.092 500.654C309.385 500.654 309.729 496.417 309.729 478.621V309.278C309.729 291.482 309.385 292.659 300.092 292.659C290.799 292.659 290.111 291.482 290.111 309.278V478.621Z" fill="black"/>
<path d="M222.64 516.99V265.18H247.48C266.949 265.18 270.642 265.47 270.642 291.721V382.885C270.642 396.434 268.628 408.712 258.222 410.829V411.676C268.963 413.369 272.32 421.837 272.32 443.007V481.848C272.32 508.099 266.949 516.99 247.48 516.99H222.64ZM236.403 498.472H247.144C256.208 498.472 258.557 494.238 258.557 476.456V441.826C258.557 424.044 256.208 426.495 247.144 426.495H236.403V498.472ZM236.403 396.01H246.137C255.201 396.01 256.879 391.776 256.879 373.994V332.456C256.879 314.673 259.717 294.841 250.654 294.841H236.403V396.01Z" fill="black"/>
<path d="M151.26 516.99L141.68 265.18H155.412L161.479 474.762H162.437L170.421 265.18H190.22L198.203 474.762H199.161L205.229 265.18H218.96L209.38 516.99H188.304L180.639 347.743H179.681L172.337 516.99H151.26Z" fill="black"/>
<path d="M114.252 519.219C93.946 519.219 90.1601 507.355 90.1601 479.39V291.639C90.1601 263.25 93.946 262.952 114.252 262.952C134.558 262.952 138 263.25 138 291.639V479.39C138 507.355 134.558 519.219 114.252 519.219ZM104.271 478.621C104.271 496.417 104.96 500.654 114.252 500.654C123.545 500.654 123.889 496.417 123.889 478.621V309.278C123.889 291.482 123.545 292.659 114.252 292.659C104.96 292.659 104.271 291.482 104.271 309.278V478.621Z" fill="black"/>
<path d="M62.7321 519.219C42.4259 519.219 38.64 507.355 38.64 479.39V291.639C38.64 263.25 42.4259 262.952 62.7321 262.952C82.6941 262.952 86.48 263.25 86.48 291.639V382.015H72.3689V308.007C72.3689 290.211 72.0248 292.659 62.7321 292.659C53.4394 292.659 52.7511 290.211 52.7511 308.007V478.621C52.7511 496.417 53.4394 500.654 62.7321 500.654C72.0248 500.654 72.3689 496.417 72.3689 478.621V445.148H86.48V479.39C86.48 507.355 82.6941 519.219 62.7321 519.219Z" fill="black"/>
<path d="M379.458 254.038V31.8886H358.8V2.22852H414V31.8886H393.342V254.038H379.458Z" fill="black"/>
<path d="M337.872 254.038V162.696H319.008V254.038H305.44V2.22852H319.008V132.212H337.872V2.22852H351.44V150.418V254.038H337.872Z" fill="black"/>
<path d="M274.332 256.267C254.026 256.267 250.24 244.403 250.24 216.438V28.6868C250.24 0.298173 254.026 0 274.332 0C294.294 0 298.08 0.298173 298.08 28.6868V119.063H283.969V45.0546C283.969 27.2588 283.625 29.7069 274.332 29.7069C265.039 29.7069 264.351 27.2588 264.351 45.0546V215.669C264.351 233.465 265.039 237.702 274.332 237.702C283.625 237.702 283.969 233.465 283.969 215.669V167.79H275.709V137.282H298.08V216.438C298.08 244.403 294.294 256.267 274.332 256.267Z" fill="black"/>
<path d="M222.64 254.038V2.22852H242.88V254.038H222.64Z" fill="black"/>
<path d="M161.92 254.038V2.22852H178.7L200.514 190.64H201.521V2.22852H215.28V254.038H198.5L176.686 110.195H175.68V254.038H161.92Z" fill="black"/>
<path d="M104.88 254.038V2.22852H130.241C150.391 2.22852 154.56 2.51821 154.56 28.7689V216.356C154.56 242.607 150.391 254.038 130.241 254.038H104.88ZM119.124 235.52H128.851C138.232 235.52 140.316 231.286 140.316 213.504V69.5041C140.316 51.7214 142.748 31.8886 133.368 31.8886H119.124V235.52Z" fill="black"/>
<path d="M77.28 254.038V2.22852H97.52V254.038H77.28Z" fill="black"/>
<path d="M0 254.038V2.22852H20.787L34.645 216.044H35.5899L49.133 2.22852H69.92V254.038H57.0068V84.791H56.062L43.7787 254.038H26.1413L13.858 84.791H12.9132V254.038H0Z" fill="black"/>
<path d="M374.183 536.5C374.41 536.5 374.592 536.587 374.728 536.76C374.909 536.89 375 537.063 375 537.28V543.585C375 543.802 374.909 543.997 374.728 544.17C374.592 544.3 374.41 544.365 374.183 544.365H365.677C365.45 544.365 365.336 544.473 365.336 544.69V581.22C365.336 581.437 365.246 581.632 365.064 581.805C364.928 581.935 364.746 582 364.52 582H356.557C356.33 582 356.126 581.935 355.945 581.805C355.809 581.632 355.741 581.437 355.741 581.22V544.69C355.741 544.473 355.627 544.365 355.4 544.365H347.234C347.007 544.365 346.803 544.3 346.621 544.17C346.485 543.997 346.417 543.802 346.417 543.585V537.28C346.417 537.063 346.485 536.89 346.621 536.76C346.803 536.587 347.007 536.5 347.234 536.5H374.183Z" fill="black" fill-opacity="0.85"/>
<path d="M328.869 537.02C329.051 536.673 329.391 536.5 329.89 536.5H337.784C338.011 536.5 338.193 536.587 338.329 536.76C338.51 536.89 338.601 537.063 338.601 537.28V581.22C338.601 581.437 338.51 581.632 338.329 581.805C338.193 581.935 338.011 582 337.784 582H329.822C329.595 582 329.391 581.935 329.21 581.805C329.074 581.632 329.005 581.437 329.005 581.22V552.035C329.005 551.862 328.96 551.775 328.869 551.775C328.779 551.775 328.688 551.84 328.597 551.97L323.289 560.94C323.062 561.287 322.881 561.46 322.744 561.46C322.608 561.46 322.427 561.287 322.2 560.94L316.892 551.97C316.801 551.84 316.71 551.775 316.62 551.775C316.529 551.775 316.484 551.862 316.484 552.035V581.22C316.484 581.437 316.393 581.632 316.211 581.805C316.075 581.935 315.894 582 315.667 582H307.705C307.478 582 307.274 581.935 307.092 581.805C306.956 581.632 306.888 581.437 306.888 581.22V537.28C306.888 537.063 306.956 536.89 307.092 536.76C307.274 536.587 307.478 536.5 307.705 536.5H315.531C315.984 536.5 316.325 536.673 316.552 537.02L322.608 547.355C322.744 547.528 322.881 547.528 323.017 547.355L328.869 537.02Z" fill="black" fill-opacity="0.85"/>
<path d="M284.784 582.52C280.701 582.52 277.412 581.415 274.916 579.205C272.466 576.952 271.241 573.962 271.241 570.235V548.265C271.241 544.538 272.466 541.57 274.916 539.36C277.412 537.107 280.701 535.98 284.784 535.98C288.867 535.98 292.157 537.107 294.652 539.36C297.147 541.613 298.395 544.603 298.395 548.33V550.8C298.395 551.017 298.304 551.212 298.123 551.385C297.987 551.515 297.805 551.58 297.578 551.58H289.616C289.389 551.58 289.185 551.515 289.004 551.385C288.867 551.212 288.799 551.017 288.799 550.8V548.2C288.799 546.9 288.436 545.86 287.71 545.08C286.985 544.257 286.009 543.845 284.784 543.845C283.605 543.845 282.652 544.257 281.926 545.08C281.2 545.86 280.837 546.9 280.837 548.2V570.3C280.837 571.6 281.2 572.662 281.926 573.485C282.652 574.265 283.605 574.655 284.784 574.655C286.009 574.655 286.985 574.265 287.71 573.485C288.436 572.662 288.799 571.6 288.799 570.3V565.1C288.799 564.883 288.686 564.775 288.459 564.775H285.465C285.238 564.775 285.034 564.71 284.852 564.58C284.716 564.407 284.648 564.212 284.648 563.995V558.21C284.648 557.993 284.716 557.82 284.852 557.69C285.034 557.517 285.238 557.43 285.465 557.43H297.578C297.805 557.43 297.987 557.517 298.123 557.69C298.304 557.82 298.395 557.993 298.395 558.21V570.235C298.395 573.962 297.147 576.952 294.652 579.205C292.157 581.415 288.867 582.52 284.784 582.52Z" fill="black" fill-opacity="0.85"/>
<path d="M253.013 537.02C253.194 536.673 253.535 536.5 254.034 536.5H261.928C262.155 536.5 262.336 536.587 262.473 536.76C262.654 536.89 262.745 537.063 262.745 537.28V581.22C262.745 581.437 262.654 581.632 262.473 581.805C262.336 581.935 262.155 582 261.928 582H253.966C253.739 582 253.535 581.935 253.353 581.805C253.217 581.632 253.149 581.437 253.149 581.22V552.035C253.149 551.862 253.104 551.775 253.013 551.775C252.922 551.775 252.831 551.84 252.741 551.97L247.433 560.94C247.206 561.287 247.024 561.46 246.888 561.46C246.752 561.46 246.571 561.287 246.344 560.94L241.035 551.97C240.945 551.84 240.854 551.775 240.763 551.775C240.673 551.775 240.627 551.862 240.627 552.035V581.22C240.627 581.437 240.536 581.632 240.355 581.805C240.219 581.935 240.037 582 239.81 582H231.848C231.621 582 231.417 581.935 231.236 581.805C231.1 581.632 231.031 581.437 231.031 581.22V537.28C231.031 537.063 231.1 536.89 231.236 536.76C231.417 536.587 231.621 536.5 231.848 536.5H239.674C240.128 536.5 240.468 536.673 240.695 537.02L246.752 547.355C246.888 547.528 247.024 547.528 247.16 547.355L253.013 537.02Z" fill="black" fill-opacity="0.85"/>
<path d="M181.449 582.54C177.366 582.54 174.076 581.392 171.581 579.095C169.131 576.755 167.906 573.635 167.906 569.735V548.675C167.906 544.818 169.131 541.742 171.581 539.445C174.076 537.148 177.366 536 181.449 536C185.578 536 188.867 537.148 191.317 539.445C193.812 541.742 195.06 544.818 195.06 548.675V549.39C195.06 549.607 194.969 549.802 194.788 549.975C194.652 550.105 194.47 550.17 194.243 550.17L186.281 550.495C185.736 550.495 185.464 550.257 185.464 549.78V548.09C185.464 546.833 185.101 545.815 184.375 545.035C183.649 544.255 182.674 543.865 181.449 543.865C180.269 543.865 179.317 544.255 178.591 545.035C177.865 545.815 177.502 546.833 177.502 548.09V570.515C177.502 571.772 177.865 572.79 178.591 573.57C179.317 574.307 180.269 574.675 181.449 574.675C182.674 574.675 183.649 574.307 184.375 573.57C185.101 572.79 185.464 571.772 185.464 570.515V568.76C185.464 568.543 185.532 568.37 185.668 568.24C185.85 568.067 186.054 567.98 186.281 567.98L194.243 568.305C194.47 568.305 194.652 568.392 194.788 568.565C194.969 568.695 195.06 568.868 195.06 569.085V569.735C195.06 573.635 193.812 576.755 191.317 579.095C188.822 581.392 185.532 582.54 181.449 582.54Z" fill="black" fill-opacity="0.85"/>
<path d="M150.316 582.02C150.089 582.02 149.885 581.955 149.704 581.825C149.568 581.652 149.5 581.457 149.5 581.24V537.3C149.5 537.083 149.568 536.91 149.704 536.78C149.885 536.607 150.089 536.52 150.316 536.52H158.279C158.506 536.52 158.687 536.607 158.823 536.78C159.005 536.91 159.095 537.083 159.095 537.3V581.24C159.095 581.457 159.005 581.652 158.823 581.825C158.687 581.955 158.506 582.02 158.279 582.02H150.316Z" fill="black" fill-opacity="0.85"/>
<path d="M128.108 582.54C125.476 582.54 123.163 582.042 121.166 581.045C119.17 580.048 117.628 578.662 116.539 576.885C115.45 575.065 114.905 572.985 114.905 570.645V568.76C114.905 568.543 114.973 568.37 115.109 568.24C115.291 568.067 115.495 567.98 115.722 567.98H123.548C123.775 567.98 123.957 568.067 124.093 568.24C124.274 568.37 124.365 568.543 124.365 568.76V570.19C124.365 571.533 124.728 572.617 125.454 573.44C126.18 574.263 127.087 574.675 128.176 574.675C129.265 574.675 130.172 574.285 130.898 573.505C131.624 572.725 131.987 571.707 131.987 570.45C131.987 569.15 131.533 568.045 130.626 567.135C129.718 566.182 127.949 564.795 125.318 562.975C123.049 561.415 121.212 560.028 119.805 558.815C118.399 557.602 117.196 556.107 116.198 554.33C115.2 552.553 114.701 550.495 114.701 548.155C114.701 544.472 115.903 541.525 118.308 539.315C120.713 537.105 123.888 536 127.836 536C131.828 536 135.027 537.148 137.431 539.445C139.881 541.742 141.106 544.753 141.106 548.48V550.04C141.106 550.257 141.015 550.452 140.834 550.625C140.698 550.755 140.516 550.82 140.29 550.82H132.463C132.236 550.82 132.032 550.755 131.851 550.625C131.715 550.452 131.647 550.257 131.647 550.04V548.285C131.647 546.942 131.284 545.88 130.558 545.1C129.877 544.277 128.97 543.865 127.836 543.865C126.747 543.865 125.862 544.255 125.182 545.035C124.501 545.772 124.161 546.812 124.161 548.155C124.161 549.455 124.592 550.603 125.454 551.6C126.316 552.597 128.017 553.983 130.558 555.76C133.371 557.753 135.48 559.378 136.887 560.635C138.339 561.848 139.45 563.213 140.221 564.73C141.038 566.203 141.446 567.98 141.446 570.06C141.446 573.873 140.221 576.907 137.772 579.16C135.322 581.413 132.1 582.54 128.108 582.54Z" fill="black" fill-opacity="0.85"/>
<path d="M93.2291 582.54C89.1458 582.54 85.8565 581.327 83.3612 578.9C80.9113 576.43 79.6863 573.158 79.6863 569.085V537.3C79.6863 537.083 79.7543 536.91 79.8904 536.78C80.0719 536.607 80.2761 536.52 80.5029 536.52H88.4653C88.6921 536.52 88.8736 536.607 89.0097 536.78C89.1912 536.91 89.2819 537.083 89.2819 537.3V569.995C89.2819 571.382 89.6449 572.508 90.3708 573.375C91.0967 574.242 92.0494 574.675 93.2291 574.675C94.4087 574.675 95.3387 574.242 96.0193 573.375C96.7452 572.508 97.1081 571.382 97.1081 569.995V537.3C97.1081 537.083 97.1762 536.91 97.3123 536.78C97.4938 536.607 97.6979 536.52 97.9248 536.52H105.887C106.114 536.52 106.295 536.607 106.432 536.78C106.613 536.91 106.704 537.083 106.704 537.3V569.085C106.704 573.158 105.456 576.43 102.961 578.9C100.511 581.327 97.2669 582.54 93.2291 582.54Z" fill="black" fill-opacity="0.85"/>
<path d="M60.9815 537.04C61.163 536.693 61.5032 536.52 62.0023 536.52H69.8966C70.1234 536.52 70.3049 536.607 70.441 536.78C70.6225 536.91 70.7132 537.083 70.7132 537.3V581.24C70.7132 581.457 70.6225 581.652 70.441 581.825C70.3049 581.955 70.1234 582.02 69.8966 582.02H61.9342C61.7074 582.02 61.5032 581.955 61.3217 581.825C61.1856 581.652 61.1176 581.457 61.1176 581.24V552.055C61.1176 551.882 61.0722 551.795 60.9815 551.795C60.8907 551.795 60.8 551.86 60.7093 551.99L55.401 560.96C55.1742 561.307 54.9927 561.48 54.8566 561.48C54.7205 561.48 54.539 561.307 54.3122 560.96L49.004 551.99C48.9132 551.86 48.8225 551.795 48.7317 551.795C48.641 551.795 48.5956 551.882 48.5956 552.055V581.24C48.5956 581.457 48.5049 581.652 48.3234 581.825C48.1873 581.955 48.0058 582.02 47.779 582.02H39.8166C39.5898 582.02 39.3856 581.955 39.2042 581.825C39.0681 581.652 39 581.457 39 581.24V537.3C39 537.083 39.0681 536.91 39.2042 536.78C39.3856 536.607 39.5898 536.52 39.8166 536.52H47.6429C48.0966 536.52 48.4368 536.693 48.6637 537.04L54.7205 547.375C54.8566 547.548 54.9927 547.548 55.1288 547.375L60.9815 537.04Z" fill="black" fill-opacity="0.85"/>
</svg>
