<svg width="1650" height="482" viewBox="0 0 1650 482" fill="none" xmlns="http://www.w3.org/2000/svg">
<path d="M1573.47 482C1553.98 482 1536.84 476.239 1522.05 464.718C1507.26 453.196 1495.84 437.167 1487.77 416.628C1479.71 395.589 1475.67 371.545 1475.67 344.494V322.704C1475.67 320.199 1476.18 318.195 1477.18 316.693C1478.53 314.689 1480.04 313.687 1481.72 313.687H1539.7C1541.38 313.687 1542.72 314.689 1543.73 316.693C1545.07 318.195 1545.75 320.199 1545.75 322.704V339.235C1545.75 354.763 1548.44 367.287 1553.81 376.804C1559.19 386.322 1565.91 391.081 1573.98 391.081C1582.04 391.081 1588.77 386.573 1594.14 377.556C1599.52 368.539 1602.21 356.767 1602.21 342.24C1602.21 327.212 1598.85 314.439 1592.13 303.919C1585.41 292.898 1572.3 276.869 1552.8 255.83C1536 237.796 1522.39 221.766 1511.97 207.74C1501.55 193.714 1492.64 176.432 1485.25 155.894C1477.86 135.356 1474.16 111.561 1474.16 84.5112C1474.16 41.932 1483.07 7.86871 1500.88 -17.6788C1518.69 -43.2263 1542.22 -56 1571.46 -56C1601.03 -56 1624.73 -42.7253 1642.54 -16.176C1660.69 10.3733 1669.76 45.188 1669.76 88.2681V106.302C1669.76 108.806 1669.09 111.061 1667.75 113.064C1666.74 114.567 1665.39 115.318 1663.71 115.318H1605.74C1604.06 115.318 1602.55 114.567 1601.2 113.064C1600.19 111.061 1599.69 108.806 1599.69 106.302V86.0139C1599.69 70.4851 1597 58.2123 1591.62 49.1955C1586.58 39.6778 1579.86 34.919 1571.46 34.919C1563.39 34.919 1556.84 39.4274 1551.8 48.4441C1546.76 56.9599 1544.23 68.9823 1544.23 84.5112C1544.23 99.5391 1547.43 112.814 1553.81 124.335C1560.2 135.857 1572.8 151.886 1591.62 172.425C1612.46 195.467 1628.09 214.252 1638.51 228.779C1649.26 242.805 1657.5 258.585 1663.21 276.117C1669.26 293.149 1672.28 313.687 1672.28 337.732C1672.28 381.814 1663.21 416.879 1645.06 442.927C1626.91 468.976 1603.05 482 1573.47 482Z" fill="black"/>
<path d="M1446.7 31.914C1446.7 34.4186 1446.02 36.6728 1444.68 38.6765C1443.67 40.1793 1442.33 40.9307 1440.65 40.9307H1335.28C1333.6 40.9307 1332.76 42.183 1332.76 44.6877V163.408C1332.76 165.913 1333.6 167.165 1335.28 167.165H1395.78C1397.46 167.165 1398.8 168.167 1399.81 170.171C1401.16 171.674 1401.83 173.677 1401.83 176.182V249.068C1401.83 251.572 1401.16 253.826 1399.81 255.83C1398.8 257.333 1397.46 258.084 1395.78 258.084H1335.28C1333.6 258.084 1332.76 259.337 1332.76 261.841V381.313C1332.76 383.818 1333.6 385.07 1335.28 385.07H1440.65C1442.33 385.07 1443.67 386.072 1444.68 388.076C1446.02 389.579 1446.7 391.582 1446.7 394.087V466.973C1446.7 469.477 1446.02 471.731 1444.68 473.735C1443.67 475.238 1442.33 475.989 1440.65 475.989H1267.73C1266.05 475.989 1264.54 475.238 1263.19 473.735C1262.18 471.731 1261.68 469.477 1261.68 466.973V-40.9715C1261.68 -43.4762 1262.18 -45.4799 1263.19 -46.9827C1264.54 -48.9864 1266.05 -49.9883 1267.73 -49.9883H1440.65C1442.33 -49.9883 1443.67 -48.9864 1444.68 -46.9827C1446.02 -45.4799 1446.7 -43.4762 1446.7 -40.9715V31.914Z" fill="black"/>
<path d="M1123.11 482C1092.86 482 1068.49 468.725 1050.01 442.176C1031.86 415.126 1022.79 379.059 1022.79 333.975V90.5223C1022.79 45.9394 1031.86 10.3733 1050.01 -16.176C1068.49 -42.7253 1092.86 -56 1123.11 -56C1153.69 -56 1178.06 -42.7253 1196.21 -16.176C1214.69 10.3733 1223.94 45.9394 1223.94 90.5223V98.7877C1223.94 101.292 1223.26 103.547 1221.92 105.55C1220.91 107.053 1219.57 107.804 1217.89 107.804L1158.9 111.561C1154.87 111.561 1152.85 108.806 1152.85 103.296V83.7598C1152.85 69.2328 1150.16 57.4609 1144.79 48.4441C1139.41 39.4274 1132.18 34.919 1123.11 34.919C1114.37 34.919 1107.31 39.4274 1101.93 48.4441C1096.56 57.4609 1093.87 69.2328 1093.87 83.7598V342.992C1093.87 357.519 1096.56 369.29 1101.93 378.307C1107.31 386.823 1114.37 391.081 1123.11 391.081C1132.18 391.081 1139.41 386.823 1144.79 378.307C1150.16 369.29 1152.85 357.519 1152.85 342.992V322.704C1152.85 320.199 1153.36 318.195 1154.36 316.693C1155.71 314.689 1157.22 313.687 1158.9 313.687L1217.89 317.444C1219.57 317.444 1220.91 318.446 1221.92 320.45C1223.26 321.952 1223.94 323.956 1223.94 326.461V333.975C1223.94 379.059 1214.69 415.126 1196.21 442.176C1177.72 468.725 1153.36 482 1123.11 482Z" fill="black"/>
<path d="M917.689 475.989C916.008 475.989 914.496 475.238 913.152 473.735C912.143 471.731 911.639 469.477 911.639 466.973V-40.9715C911.639 -43.4762 912.143 -45.4799 913.152 -46.9827C914.496 -48.9864 916.008 -49.9883 917.689 -49.9883H976.673C978.353 -49.9883 979.697 -48.9864 980.706 -46.9827C982.05 -45.4799 982.722 -43.4762 982.722 -40.9715V466.973C982.722 469.477 982.05 471.731 980.706 473.735C979.697 475.238 978.353 475.989 976.673 475.989H917.689Z" fill="black"/>
<path d="M733.537 475.989C729.84 475.989 727.656 473.234 726.984 467.724L654.892 -40.2201L654.388 -43.2257C654.388 -47.7341 656.237 -49.9883 659.934 -49.9883H724.967C729 -49.9883 731.185 -47.2332 731.521 -41.7229L766.306 288.892C766.642 290.895 767.146 291.897 767.819 291.897C768.491 291.897 768.995 290.895 769.331 288.892L803.108 -41.7229C803.444 -47.2332 805.629 -49.9883 809.662 -49.9883H872.679C877.048 -49.9883 878.728 -46.7322 877.72 -40.2201L805.125 467.724C804.453 473.234 802.268 475.989 798.571 475.989H733.537Z" fill="black"/>
<path d="M569.292 475.989C565.595 475.989 563.242 473.485 562.234 468.475L523.415 261.09C522.743 259.086 521.903 258.084 520.895 258.084H503.754C502.074 258.084 501.233 259.337 501.233 261.841V466.973C501.233 469.477 500.561 471.731 499.217 473.735C498.209 475.238 496.864 475.989 495.184 475.989H436.2C434.52 475.989 433.007 475.238 431.663 473.735C430.655 471.731 430.15 469.477 430.15 466.973V-40.9715C430.15 -43.4762 430.655 -45.4799 431.663 -46.9827C433.007 -48.9864 434.52 -49.9883 436.2 -49.9883H538.035C556.52 -49.9883 572.989 -43.2257 587.441 -29.7006C601.893 -16.6763 612.983 1.85808 620.714 25.9028C628.78 49.9475 632.813 77.4987 632.813 108.556C632.813 138.111 628.948 164.16 621.218 186.702C613.824 209.244 603.405 226.776 589.961 239.299C589.289 239.8 588.785 240.552 588.449 241.554C588.113 242.055 588.113 242.806 588.449 243.808L634.829 465.47L635.334 468.475C635.334 473.485 633.485 475.989 629.788 475.989H569.292ZM503.754 40.9307C502.074 40.9307 501.233 42.183 501.233 44.6877V173.176C501.233 175.681 502.074 176.933 503.754 176.933H526.44C536.859 176.933 545.261 170.922 551.647 158.9C558.369 146.377 561.73 129.846 561.73 109.308C561.73 88.2687 558.369 71.738 551.647 59.7156C545.261 47.1923 536.859 40.9307 526.44 40.9307H503.754Z" fill="black"/>
<path d="M394.116 31.914C394.116 34.4186 393.444 36.6728 392.1 38.6765C391.092 40.1793 389.747 40.9307 388.067 40.9307H282.703C281.022 40.9307 280.182 42.183 280.182 44.6877V163.408C280.182 165.913 281.022 167.165 282.703 167.165H343.199C344.879 167.165 346.224 168.167 347.232 170.171C348.576 171.674 349.248 173.677 349.248 176.182V249.068C349.248 251.572 348.576 253.826 347.232 255.83C346.224 257.333 344.879 258.084 343.199 258.084H282.703C281.022 258.084 280.182 259.337 280.182 261.841V381.313C280.182 383.818 281.022 385.07 282.703 385.07H388.067C389.747 385.07 391.092 386.072 392.1 388.076C393.444 389.579 394.116 391.582 394.116 394.087V466.973C394.116 469.477 393.444 471.731 392.1 473.735C391.092 475.238 389.747 475.989 388.067 475.989H215.148C213.468 475.989 211.956 475.238 210.611 473.735C209.603 471.731 209.099 469.477 209.099 466.973V-40.9715C209.099 -43.4762 209.603 -45.4799 210.611 -46.9827C211.956 -48.9864 213.468 -49.9883 215.148 -49.9883H388.067C389.747 -49.9883 391.092 -48.9864 392.1 -46.9827C393.444 -45.4799 394.116 -43.4762 394.116 -40.9715V31.914Z" fill="black"/>
<path d="M77.3147 482C57.8214 482 40.6808 476.239 25.8929 464.718C11.1049 453.196 -0.322176 437.167 -8.38834 416.628C-16.4545 395.589 -20.4876 371.545 -20.4876 344.494V322.704C-20.4876 320.199 -19.9835 318.195 -18.9752 316.693C-17.6308 314.689 -16.1184 313.687 -14.438 313.687H43.5376C45.2181 313.687 46.5624 314.689 47.5707 316.693C48.9151 318.195 49.5872 320.199 49.5872 322.704V339.235C49.5872 354.763 52.276 367.287 57.6534 376.804C63.0308 386.322 69.7526 391.081 77.8188 391.081C85.885 391.081 92.6068 386.573 97.9842 377.556C103.362 368.539 106.05 356.767 106.05 342.24C106.05 327.212 102.689 314.439 95.9677 303.919C89.2459 292.898 76.1384 276.869 56.6451 255.83C39.8406 237.796 26.229 221.766 15.8102 207.74C5.39136 193.714 -3.51503 176.432 -10.909 155.894C-18.303 135.356 -22 111.561 -22 84.5112C-22 41.932 -13.0936 7.86871 4.71918 -17.6788C22.532 -43.2263 46.0583 -56 75.2981 -56C104.874 -56 128.568 -42.7253 146.381 -16.176C164.53 10.3733 173.605 45.188 173.605 88.2681V106.302C173.605 108.806 172.932 111.061 171.588 113.064C170.58 114.567 169.235 115.318 167.555 115.318H109.579C107.899 115.318 106.386 114.567 105.042 113.064C104.034 111.061 103.53 108.806 103.53 106.302V86.0139C103.53 70.4851 100.841 58.2123 95.4636 49.1955C90.4222 39.6778 83.7004 34.919 75.2981 34.919C67.232 34.919 60.6782 39.4274 55.6369 48.4441C50.5955 56.9599 48.0748 68.9823 48.0748 84.5112C48.0748 99.5391 51.2677 112.814 57.6534 124.335C64.0391 135.857 76.6425 151.886 95.4636 172.425C116.301 195.467 131.929 214.252 142.348 228.779C153.103 242.805 161.337 258.585 167.051 276.117C173.1 293.149 176.125 313.687 176.125 337.732C176.125 381.814 167.051 416.879 148.902 442.927C130.753 468.976 106.891 482 77.3147 482Z" fill="black"/>
</svg>
